# xmcd
#
# Track frame offsets: 
#        150
#        10086
#        28750
#        43246
#        55886
#        76544
#        91790
#        111986
#        127238
#        139951
#        157137
#
# Disc length: 2290 seconds
#
# Revision: 0
# Processed by: cddbd v1.5.2PL0 Copyright (c) Steve Scherf et al.
# Submitted via: ExactAudioCopy v0.99pb5
#
DISCID=9108f00b
DTITLE=Erin McCallum and Roadtrip - 5 a.m. Blues
DYEAR=2006
DGENRE=Blues
TTITLE0=Red Hot
TTITLE1=Roadtrip
TTITLE2=5 a.m. Blues
TTITLE3=Lovin' Man Blues
TTITLE4=Everyday
TTITLE5=Drinkin'
TTITLE6=Ain't No Blues
TTITLE7=Listen What I Say
TTITLE8=Company
TTITLE9=Clarksdale
TTITLE10=Jump In Train
EXTD=
EXTT0=
EXTT1=
EXTT2=
EXTT3=
EXTT4=
EXTT5=
EXTT6=
EXTT7=
EXTT8=
EXTT9=
EXTT10=
PLAYORDER=
